<svg xmlns="http://www.w3.org/2000/svg" viewBox="0 0 200 200" fill="none">
  <rect width="200" height="200" rx="20" fill="#F0F8F0"/>
  <g opacity="0.4"><path d="M0 188 L40 118 L70 148 L100 108 L130 146 L160 116 L200 188 Z" fill="#B8D8A0"/></g>
  <ellipse cx="82" cy="80" rx="14" ry="18" fill="#E8A050" stroke="#5C3020" stroke-width="1.5"/>
  <ellipse cx="118" cy="80" rx="14" ry="18" fill="#E8A050" stroke="#5C3020" stroke-width="1.5"/>
  <ellipse cx="82" cy="78" rx="8" ry="10" fill="#C87030" stroke="none"/>
  <ellipse cx="118" cy="78" rx="8" ry="10" fill="#C87030" stroke="none"/>
  <ellipse cx="100" cy="114" rx="42" ry="40" fill="#F5C070" stroke="#5C3020" stroke-width="1.8"/>
  <ellipse cx="100" cy="124" rx="16" ry="10" fill="#E8A050" stroke="none"/>
  <ellipse cx="100" cy="122" rx="9" ry="7" fill="#C87030" stroke="#5C3020" stroke-width="1.2"/>
  <circle cx="87" cy="108" r="4" fill="#2A1A0A"/><circle cx="113" cy="108" r="4" fill="#2A1A0A"/>
  <circle cx="88.5" cy="106.5" r="1.5" fill="white"/><circle cx="114.5" cy="106.5" r="1.5" fill="white"/>
  <circle cx="84" cy="118" r="3.5" fill="#E88060" opacity="0.6"/><circle cx="116" cy="118" r="3.5" fill="#E88060" opacity="0.6"/>
  <path d="M93 128 q7 7 14 0" stroke="#5C3020" stroke-width="1.8" fill="none" stroke-linecap="round"/>
  <path d="M76 150 q-10 8-18 4" stroke="#5C3020" stroke-width="2" fill="none" stroke-linecap="round"/>
  <path d="M124 150 q10 8 18 4" stroke="#5C3020" stroke-width="2" fill="none" stroke-linecap="round"/>
  <rect x="148" y="66" width="24" height="32" rx="5" fill="#90C860" stroke="#406020" stroke-width="1.5"/>
  <path d="M154 66 q0-10 10-10 q10 0 10 10" fill="none" stroke="#406020" stroke-width="1.2"/>
  <line x1="150" y1="80" x2="170" y2="80" stroke="#406020" stroke-width="1.2"/>
  <rect x="155" y="86" width="10" height="7" rx="2" fill="#60A030" stroke="none"/>
  <circle cx="36" cy="178" r="10" fill="#F5C070" stroke="#5C3020" stroke-width="1.2"/>
  <ellipse cx="36" cy="170" rx="6" ry="8" fill="#E8A050" stroke="#5C3020" stroke-width="1"/>
  <circle cx="32" cy="176" r="1.5" fill="#2A1A0A"/><circle cx="40" cy="176" r="1.5" fill="#2A1A0A"/>
  <path d="M32 181 q4 3 8 0" stroke="#5C3020" stroke-width="1" fill="none"/>
  <circle cx="164" cy="178" r="10" fill="#F5C070" stroke="#5C3020" stroke-width="1.2"/>
  <ellipse cx="164" cy="170" rx="6" ry="8" fill="#E8A050" stroke="#5C3020" stroke-width="1"/>
  <circle cx="160" cy="176" r="1.5" fill="#2A1A0A"/><circle cx="168" cy="176" r="1.5" fill="#2A1A0A"/>
  <path d="M160 181 q4 3 8 0" stroke="#5C3020" stroke-width="1" fill="none"/>
</svg>
