<svg xmlns="http://www.w3.org/2000/svg" viewBox="0 0 200 200" fill="none">
  <rect width="200" height="200" rx="20" fill="#F4F8F0"/>
  <g opacity="0.4"><path d="M0 188 L30 148 L60 188 Z" fill="#90C860"/><path d="M40 188 L75 132 L110 188 Z" fill="#80B850"/><path d="M100 188 L135 132 L170 188 Z" fill="#90C860"/><path d="M150 188 L175 148 L200 188 Z" fill="#80B850"/></g>
  <circle cx="80" cy="78" r="14" fill="#C8A060" stroke="#5C3A10" stroke-width="1.5"/>
  <circle cx="120" cy="78" r="14" fill="#C8A060" stroke="#5C3A10" stroke-width="1.5"/>
  <ellipse cx="100" cy="116" rx="44" ry="40" fill="#D4B070" stroke="#5C3A10" stroke-width="1.8"/>
  <ellipse cx="100" cy="130" rx="18" ry="12" fill="#C8A060" stroke="#5C3A10" stroke-width="1.2"/>
  <ellipse cx="100" cy="128" rx="10" ry="8" fill="#B07840" stroke="#5C3A10" stroke-width="1.2"/>
  <circle cx="87" cy="110" r="4.5" fill="#2A1A00"/><circle cx="113" cy="110" r="4.5" fill="#2A1A00"/>
  <circle cx="89" cy="108.5" r="1.8" fill="white"/><circle cx="115" cy="108.5" r="1.8" fill="white"/>
  <circle cx="83" cy="120" r="4" fill="#C07840" opacity="0.5"/><circle cx="117" cy="120" r="4" fill="#C07840" opacity="0.5"/>
  <path d="M93 132 q7 6 14 0" stroke="#5C3A10" stroke-width="1.8" fill="none" stroke-linecap="round"/>
  <path d="M74 154 q-10 8-18 4" stroke="#5C3A10" stroke-width="2" fill="none" stroke-linecap="round"/>
  <path d="M126 154 q10 8 18 4" stroke="#5C3A10" stroke-width="2" fill="none" stroke-linecap="round"/>
  <line x1="22" y1="152" x2="40" y2="164" stroke="#5C3A10" stroke-width="1.8"/>
  <line x1="72" y1="152" x2="56" y2="164" stroke="#5C3A10" stroke-width="1.8"/>
  <path d="M40 164 Q48 180 56 164" fill="#F0D890" stroke="#8B6020" stroke-width="1.5"/>
  <circle cx="22" cy="152" r="5" fill="#90C860" stroke="#508030" stroke-width="1"/>
  <circle cx="72" cy="152" r="5" fill="#90C860" stroke="#508030" stroke-width="1"/>
</svg>
