<svg xmlns="http://www.w3.org/2000/svg" viewBox="0 0 200 200" fill="none">
  <rect width="200" height="200" rx="20" fill="#FFF8F0"/>
  <g opacity="0.35"><rect x="8" y="120" width="16" height="68" rx="2" fill="#D0A870"/><rect x="28" y="100" width="18" height="88" rx="2" fill="#D0A870"/><rect x="50" y="112" width="14" height="76" rx="2" fill="#D0A870"/><rect x="130" y="108" width="16" height="80" rx="2" fill="#D0A870"/><rect x="150" y="118" width="18" height="70" rx="2" fill="#D0A870"/><rect x="172" y="126" width="14" height="62" rx="2" fill="#D0A870"/></g>
  <path d="M78 92 L68 62 L90 80 Z" fill="#E06820" stroke="#802010" stroke-width="1.5" stroke-linejoin="round"/>
  <path d="M122 92 L132 62 L110 80 Z" fill="#E06820" stroke="#802010" stroke-width="1.5" stroke-linejoin="round"/>
  <ellipse cx="100" cy="114" rx="42" ry="38" fill="#F08040" stroke="#802010" stroke-width="1.8"/>
  <ellipse cx="100" cy="130" rx="20" ry="12" fill="#FFF0E0" stroke="#802010" stroke-width="1"/>
  <ellipse cx="100" cy="122" rx="8" ry="6" fill="#D04020" stroke="#802010" stroke-width="1.2"/>
  <circle cx="87" cy="108" r="4" fill="#2A1000"/><circle cx="113" cy="108" r="4" fill="#2A1000"/>
  <circle cx="88.5" cy="106.5" r="1.5" fill="white"/><circle cx="114.5" cy="106.5" r="1.5" fill="white"/>
  <circle cx="84" cy="118" r="3.5" fill="#F0A060" opacity="0.6"/><circle cx="116" cy="118" r="3.5" fill="#F0A060" opacity="0.6"/>
  <path d="M93 128 q7 6 14 0" stroke="#802010" stroke-width="1.8" fill="none" stroke-linecap="round"/>
  <path d="M76 152 q-10 8-18 4" stroke="#802010" stroke-width="2" fill="none" stroke-linecap="round"/>
  <path d="M124 152 q10 8 18 4" stroke="#802010" stroke-width="2" fill="none" stroke-linecap="round"/>
  <rect x="130" y="70" width="28" height="20" rx="4" fill="#C8DCF0" stroke="#4060A0" stroke-width="1.5"/>
  <path d="M134 70 l5-7 h10 l5 7" fill="#C8DCF0" stroke="#4060A0" stroke-width="1.2"/>
  <circle cx="144" cy="80" r="6" fill="none" stroke="#4060A0" stroke-width="1.2"/>
  <circle cx="144" cy="80" r="3" fill="#4080C0"/>
</svg>
