<svg xmlns="http://www.w3.org/2000/svg" viewBox="0 0 200 200" fill="none">
  <rect width="200" height="200" rx="20" fill="#FFF5E8"/>
  <g opacity="0.35"><rect x="8" y="120" width="16" height="68" rx="2" fill="#D4B896"/><rect x="28" y="100" width="18" height="88" rx="2" fill="#D4B896"/><rect x="50" y="112" width="14" height="76" rx="2" fill="#D4B896"/><rect x="130" y="108" width="16" height="80" rx="2" fill="#D4B896"/><rect x="150" y="118" width="18" height="70" rx="2" fill="#D4B896"/><rect x="172" y="126" width="14" height="62" rx="2" fill="#D4B896"/></g>
  <ellipse cx="82" cy="80" rx="14" ry="18" fill="#E8A050" stroke="#5C3020" stroke-width="1.5"/>
  <ellipse cx="118" cy="80" rx="14" ry="18" fill="#E8A050" stroke="#5C3020" stroke-width="1.5"/>
  <ellipse cx="82" cy="78" rx="8" ry="10" fill="#C87030" stroke="none"/>
  <ellipse cx="118" cy="78" rx="8" ry="10" fill="#C87030" stroke="none"/>
  <ellipse cx="100" cy="114" rx="42" ry="40" fill="#F5C070" stroke="#5C3020" stroke-width="1.8"/>
  <ellipse cx="100" cy="124" rx="16" ry="10" fill="#E8A050" stroke="none"/>
  <ellipse cx="100" cy="122" rx="9" ry="7" fill="#C87030" stroke="#5C3020" stroke-width="1.2"/>
  <circle cx="87" cy="108" r="4" fill="#2A1A0A"/><circle cx="113" cy="108" r="4" fill="#2A1A0A"/>
  <circle cx="88.5" cy="106.5" r="1.5" fill="white"/><circle cx="114.5" cy="106.5" r="1.5" fill="white"/>
  <circle cx="84" cy="118" r="3.5" fill="#E88060" opacity="0.6"/><circle cx="116" cy="118" r="3.5" fill="#E88060" opacity="0.6"/>
  <path d="M93 128 q7 7 14 0" stroke="#5C3020" stroke-width="1.8" fill="none" stroke-linecap="round"/>
  <path d="M76 150 q-10 8-18 4" stroke="#5C3020" stroke-width="2" fill="none" stroke-linecap="round"/>
  <path d="M124 150 q10 8 18 4" stroke="#5C3020" stroke-width="2" fill="none" stroke-linecap="round"/>
  <rect x="130" y="74" width="22" height="20" rx="3" fill="#FFF8F0" stroke="#8B5E3C" stroke-width="1.5"/>
  <path d="M152 80 q7 0 7 6 q0 5-7 5" fill="none" stroke="#8B5E3C" stroke-width="1.2"/>
  <path d="M136 68 q2-5 0-9" stroke="#8B5E3C" stroke-width="1.2" fill="none"/>
  <path d="M143 68 q2-5 0-9" stroke="#8B5E3C" stroke-width="1.2" fill="none"/>
  <path d="M150 68 q2-5 0-9" stroke="#8B5E3C" stroke-width="1.2" fill="none"/>
  <circle cx="36" cy="178" r="10" fill="#F5C070" stroke="#5C3020" stroke-width="1.2"/>
  <ellipse cx="36" cy="170" rx="6" ry="8" fill="#E8A050" stroke="#5C3020" stroke-width="1"/>
  <circle cx="32" cy="176" r="1.5" fill="#2A1A0A"/><circle cx="40" cy="176" r="1.5" fill="#2A1A0A"/>
  <path d="M32 181 q4 3 8 0" stroke="#5C3020" stroke-width="1" fill="none"/>
  <circle cx="164" cy="178" r="10" fill="#F5C070" stroke="#5C3020" stroke-width="1.2"/>
  <ellipse cx="164" cy="170" rx="6" ry="8" fill="#E8A050" stroke="#5C3020" stroke-width="1"/>
  <circle cx="160" cy="176" r="1.5" fill="#2A1A0A"/><circle cx="168" cy="176" r="1.5" fill="#2A1A0A"/>
  <path d="M160 181 q4 3 8 0" stroke="#5C3020" stroke-width="1" fill="none"/>
</svg>
